<?xml version="1.0" encoding="utf-8"?>
<!-- Generator: Adobe Illustrator 24.3.0, SVG Export Plug-In . SVG Version: 6.00 Build 0)  -->
<svg version="1.1" id="Layer_1" xmlns="http://www.w3.org/2000/svg" xmlns:xlink="http://www.w3.org/1999/xlink" x="0px" y="0px"
	 viewBox="0 0 1134 603.9" style="enable-background:new 0 0 1134 603.9;" xml:space="preserve">
<style type="text/css">
	.st0{fill:#FFE0D8;}
	.st1{fill:#80C2FF;}
	.st2{fill:#5DACF5;}
	.st3{fill:#FF623A;}
	.st4{fill:#BF4A2C;}
	.st5{fill:#A5B8E6;}
	.st6{fill:#BED0FA;}
	.st7{fill:#FFBB42;}
	.st8{fill:#FAB232;}
	.st9{fill:#6A62A6;}
	.st10{fill:#FFDC9C;}
	.st11{opacity:0.2;}
	.st12{fill:#FFC0B0;}
	.st13{fill:#FFFFFF;}
	.st14{fill:#FFA189;}
	.st15{fill:#C2E2FF;}
	.st16{fill:#70BAFF;}
	.st17{fill:#FFB857;}
	.st18{fill:#FFA72E;}
	.st19{fill:#F9CBCB;}
	.st20{opacity:0.1;}
	.st21{fill:#2F2763;}
	.st22{fill:#FFD4D1;}
	.st23{fill:#FFC6C2;}
	.st24{fill:#272D6E;}
	.st25{fill:#979BD4;}
	.st26{fill:#63AEFF;}
	.st27{fill:#464E9C;}
	.st28{fill:#646BB5;}
	.st29{fill:#FFCFCF;}
	.st30{fill:#646CAD;}
	.st31{fill:#2E345C;}
	.st32{fill:#FAB4AF;}
	.st33{fill:#3E4696;}
	.st34{fill:#6C6FA6;}
	.st35{fill:#FF63B1;}
	.st36{fill:#393F87;}
	.st37{fill:#F04F9F;}
	.st38{fill:#434991;}
	.st39{fill:#E89131;}
	.st40{fill:#FFB047;}
</style>
<g>
	<path class="st0" d="M602,483.8c376.7,0,532,26.9,532,60.1s-155.3,60.1-532,60.1S0,577.1,0,543.9S225.3,483.8,602,483.8z"/>
	<g>
		<g>
			<path class="st1" d="M1009.9,216c-7.4,2.6-14.8,2.5-22.2-0.1c-10.3-16.4,6.3-30.6,5.4-44.5c-0.1-1.7,1.2-3.1,2.9-3.1l6,0
				c1.8,0,3,1.6,2.9,3.3C1004,187.4,1020.7,200.8,1009.9,216z"/>
			<path class="st2" d="M1012.3,211c-12.8,4.5-25.4-7.2-22.4-20.4c1.7-7.6,5-15,4.5-21.9c-0.9,0.5-1.4,1.5-1.3,2.6
				c0.9,13.9-15.7,28.1-5.4,44.5c7.4,2.6,14.8,2.7,22.2,0.1c1.2-1.7,2.1-3.4,2.6-5.1C1012.4,211,1012.4,211,1012.3,211z"/>
			
				<rect x="997.4" y="163.4" transform="matrix(5.099934e-03 -1 1 5.099934e-03 827.473 1164.8331)" class="st3" width="3.5" height="6.3"/>
			
				<rect x="990.5" y="152.6" transform="matrix(5.199930e-03 -1 1 5.199930e-03 832.6497 1148.0574)" class="st3" width="5.8" height="5.9"/>
			<path class="st3" d="M991,153.9c0,0-3.8,7.1-9.4,7.3c-1.3,0,4.9-2.8,7.3-10.6l2.7,1.1L991,153.9z"/>
			<path class="st1" d="M1003.7,165.1l-9,0c-0.2,0-0.4-0.2-0.4-0.5l0-3.6c0-0.2,0.2-0.4,0.5-0.4l9,0c0.2,0,0.4,0.2,0.4,0.5l0,3.6
				C1004.2,164.9,1004,165.1,1003.7,165.1z"/>
			<path class="st1" d="M1005.4,150.9c0,0-3.4-7.3-24.3-3.9l0,0.4l-1.8,0l0,4l1.8,0l0,0.5c0,0,4.1-1.1,9.1,1.5c5,2.6,5,7.1,5,7.1
				l8.3,0l0-4.3l4.4,0l0-5.5L1005.4,150.9z"/>
		</g>
		<g>
			<ellipse class="st4" cx="777" cy="334.2" rx="76.4" ry="11.3"/>
			<g>
				<path class="st3" d="M736.3,225.6l-7.2,1.4l47.9,242.4c0.4,2,2.3,3.3,4.3,2.9l0,0c2-0.4,3.3-2.3,2.9-4.3L736.3,225.6z"/>
				<path class="st5" d="M736.3,225.6l-7.2,1.4l47.9,242.4c0.4,2,2.3,3.3,4.3,2.9l0,0c2-0.4,3.3-2.3,2.9-4.3L736.3,225.6z"/>
				<path class="st6" d="M781.6,472.2l-48.4-244.5l-3.8,0.8l-0.3-1.5l7.2-1.4l48,242.6C784.6,470.1,783.4,471.9,781.6,472.2
					L781.6,472.2z"/>
				<path class="st7" d="M754.7,148.1c-0.7-0.3-1.5-0.5-2.2-0.6c-1.1-0.2-2.3-0.1-3.5,0.2c-2.1,0.5-4.2,0.9-6.3,1.2
					c-0.5,0.1-1.1,0.2-1.6,0.2c-2.5,0.3-5,0.5-7.4,0.7c-0.7,0-1.5,0.1-2.2,0.1c-2.3,0.1-4.5,0.1-6.8,0.1c-0.5,0-1,0-1.5,0
					c-2.6,0-5.2-0.1-7.8-0.1c-0.8,0-1.6,0-2.4,0c-2.2,0-4.5,0-6.7,0.1c-0.7,0-1.3,0.1-1.9,0.1c-2.2,0.1-4.4,0.3-6.6,0.5
					c-0.7,0.1-1.5,0.2-2.2,0.3c-3.5,0.5-6.9,1.3-10.3,2.4c-0.7,0.2-1.4,0.5-2,0.7c-2,0.8-4.1,1.7-6.1,2.9c-0.7,0.4-1.3,0.7-1.9,1.1
					c-1.1,0.7-2.1,1.4-3.2,2.2c-4.2,3.1-5.1,9.1-2.1,13.4l20.7,29.2l64.4-15.9l5.5-27.8C761.6,154.2,758.8,149.7,754.7,148.1z"/>
				<path class="st8" d="M760.6,159l-5.5,27.8l-4.7,1.2l3.1-15.8c1-4.8-1.8-9.3-5.9-10.9c-0.7-0.3-1.5-0.5-2.2-0.6
					c-1.1-0.2-2.3-0.1-3.5,0.2c-2.1,0.5-4.2,0.9-6.3,1.2c-0.5,0.1-1.1,0.2-1.6,0.2c-2.5,0.3-5,0.5-7.4,0.7c-0.7,0-1.5,0.1-2.2,0.1
					c-2.3,0.1-4.5,0.1-6.8,0.1c-0.5,0-1,0-1.5,0c-2.6,0-5.2-0.1-7.8-0.1c-0.8,0-1.6,0-2.4,0c-2.2,0-4.5,0-6.7,0.1
					c-0.7,0-1.3,0.1-1.9,0.1c-2.2,0.1-4.4,0.3-6.6,0.5c-0.7,0.1-1.5,0.2-2.2,0.3c-3.5,0.5-6.9,1.3-10.3,2.4c-0.7,0.2-1.4,0.5-2,0.7
					c-2,0.8-4.1,1.7-6.1,2.9c-0.5,0.3-1,0.6-1.5,0.9c-1.2-3.8,0-8.2,3.4-10.7c1.1-0.8,2.1-1.5,3.2-2.2c0.6-0.4,1.3-0.8,1.9-1.1
					c2-1.1,4-2.1,6.1-2.9c0.7-0.3,1.4-0.5,2-0.7c3.4-1.1,6.8-1.9,10.3-2.4c0.7-0.1,1.5-0.2,2.2-0.3c2.2-0.3,4.4-0.4,6.6-0.5
					c0.6,0,1.3-0.1,1.9-0.1c2.2-0.1,4.4-0.1,6.7-0.1c0.8,0,1.6,0,2.4,0c2.6,0,5.2,0.1,7.8,0.1c0.5,0,1,0,1.5,0c2.2,0,4.5,0,6.8-0.1
					c0.7,0,1.5-0.1,2.2-0.1c2.5-0.1,5-0.3,7.4-0.7c0.5-0.1,1.1-0.1,1.6-0.2c2.1-0.3,4.2-0.7,6.3-1.2c1.2-0.3,2.4-0.3,3.5-0.2
					c0.8,0.1,1.5,0.3,2.2,0.6C758.8,149.7,761.6,154.2,760.6,159z"/>
				<path class="st9" d="M746.4,218.5l-6.6,1.6c0.5,0.9,0.9,1.8,1.2,2.8c0.9,3.6-0.1,7.2-2.4,9.7l3.9,15.7l-12,2.9l-3.9-15.9
					c-3.1-1.2-5.6-3.9-6.4-7.4c-0.2-1-0.3-2-0.3-3l-5.8,1.4c-4.3,1.1-8.8-0.8-11.2-4.5l-12.1-19.3l64.4-15.9l-0.9,22.1
					C754.1,213.5,750.9,217.4,746.4,218.5z"/>
				<path class="st10" d="M692.3,186.9c-4.8-5.4-8.7-11.6-11.5-18.3c-1.6-3.8-2.7-7.7-3.5-11.7c-0.7,0.4-1.3,0.7-1.9,1.1
					c1.1,3.8,2.5,7.6,4.2,11.2c3.1,6.7,7.1,12.9,12.1,18.4C691.9,187.9,692.7,187.3,692.3,186.9z"/>
				<path class="st10" d="M695.1,173.6c-3.5-4-6.1-8.8-7.9-13.8c-0.8-2.1-1.4-4.3-1.8-6.6c-0.7,0.2-1.4,0.5-2,0.7
					c0.5,2.2,1.2,4.4,2,6.5c2,5.3,5.1,9.8,8.9,13.9C694.7,174.9,695.6,174.2,695.1,173.6z"/>
				<path class="st10" d="M708.1,184.2c-3.8-6.8-6.5-14.1-8.3-21.7c-1-4-1.6-8-2-12c-0.7,0.1-1.5,0.2-2.2,0.3
					c1.2,12,5.3,23.6,11.5,33.9C707.5,185.3,708.5,184.8,708.1,184.2z"/>
				<path class="st10" d="M708.5,164.9c-0.8-4.9-1.7-9.8-2.1-14.7c0-0.1,0-0.2,0-0.2c-0.7,0-1.3,0.1-1.9,0.1c0,0.1,0,0.2,0,0.3
					c0.6,5,1.4,10,2.7,14.8C707.4,165.9,708.7,165.7,708.5,164.9z"/>
				<path class="st10" d="M721.7,181.6c-2.7-7.8-4.6-15.9-5.6-24.1c-0.3-2.5-0.5-5-0.6-7.5c-0.8,0-1.6,0-2.4,0
					c0.2,2.6,0.4,5.3,0.8,7.9c1.1,8.4,3.2,16.6,6.5,24.4C720.7,183.2,722.1,182.5,721.7,181.6z"/>
				<path class="st10" d="M726.2,169.1c-1-6-1.4-11.9-1.5-18c0-0.4,0-0.8,0-1.2c-0.5,0-1,0-1.5,0c0,0.5,0,1,0,1.5
					c0.1,6,0.8,12,1.9,17.8C725.3,169.9,726.3,169.7,726.2,169.1z"/>
				<path class="st10" d="M736.8,182.6c-1.8-8.1-2.9-16.4-3.1-24.7c-0.1-2.7-0.1-5.5,0-8.2c-0.7,0-1.5,0.1-2.2,0.1
					c-0.1,2.7-0.1,5.3,0,8c0.3,8.5,1.6,16.9,3.9,25C735.6,183.7,737,183.5,736.8,182.6z"/>
				<path class="st10" d="M742.6,168.3c-0.5-5.4-0.6-10.8-0.2-16.2c0.1-1.1,0.2-2.1,0.3-3.2c-0.5,0.1-1.1,0.2-1.6,0.2
					c-0.1,0.9-0.2,1.9-0.2,2.8c-0.4,5.5-0.3,11.1,0.5,16.6C741.5,169.2,742.7,169,742.6,168.3z"/>
				<path class="st10" d="M754.7,148.1c-0.7-0.3-1.5-0.5-2.2-0.6c-0.8,3.2-1.5,6.4-2.1,9.7c-1.4,8.2-1.9,16.4-1.9,24.6
					c0,0.7,1.1,0.8,1.1,0.1c0.2-8.1,1.3-16.2,2.8-24.1C753.1,154.6,753.9,151.3,754.7,148.1z"/>
			</g>
			<path class="st3" d="M845.4,337.8l-19.9,146c-32.3,4.6-64.9,5.5-97.9,0L713.1,367l-3.6-29.2C757.3,345,802.4,344.6,845.4,337.8z"
				/>
			<path class="st11" d="M845.4,337.8l-19.9,146c0,0,9.7-71.1-17.5-93.7c-32.9-27.3-94.8-23.1-94.8-23.1l-3.6-29.2
				C757.3,345,802.4,344.6,845.4,337.8z"/>
			<path class="st12" d="M748.6,464.7c-7.3,0-14.5-1.9-21.5-5.8C692,439.7,701.5,347,702.9,335.4l11.1,2.8
				c-3.7,29.4-6.7,98.2,18,111.7c9.5,5.2,19,5.9,29.2,2.2c44.1-16.3,79.7-109,80-109.9l9.5,3.6c-1.5,4-37.6,98-86,115.8
				C759.3,463.7,753.9,464.7,748.6,464.7z"/>
			<path class="st3" d="M853.4,353.5c-50.9,8.9-101.8,8.9-152.8,0v-19.3c53,10,104,11.6,152.8,1.3V353.5z"/>
		</g>
		<g>
			<rect x="689.3" y="480.5" class="st12" width="378.1" height="10.5"/>
			<rect x="870.7" y="212.4" class="st12" width="158.3" height="13.4"/>
			<rect x="870.7" y="293.7" class="st12" width="158.3" height="13.4"/>
			<rect x="870.7" y="396.3" class="st12" width="158.3" height="13.4"/>
			<rect x="1024.4" y="180.5" class="st12" width="17.7" height="306.5"/>
			<rect x="861.9" y="180.5" class="st12" width="17.7" height="306.5"/>
			<rect x="1024.4" y="177.4" class="st12" width="69.3" height="16.2"/>
		</g>
		<g>
			<circle class="st12" cx="730.3" cy="503.3" r="24.6"/>
			<path class="st13" d="M718,503.3c0-6.8,5.5-12.3,12.3-12.3c6.8,0,12.3,5.5,12.3,12.3s-5.5,12.3-12.3,12.3
				C723.5,515.6,718,510.1,718,503.3z"/>
		</g>
		<g>
			<circle class="st14" cx="1028.3" cy="503.3" r="24.6"/>
			<path class="st13" d="M1016,503.3c0-6.8,5.5-12.3,12.3-12.3c6.8,0,12.3,5.5,12.3,12.3s-5.5,12.3-12.3,12.3
				C1021.5,515.6,1016,510.1,1016,503.3z"/>
		</g>
		<g>
			<path class="st3" d="M927,157.2h-6.9c-0.9,0-1.6,0.7-1.6,1.6v3.2h10.1v-3.2C928.6,157.9,927.9,157.2,927,157.2z"/>
			<path class="st3" d="M925.6,158.6h-4.1c0.5-2.5,0.4-4.9,0-7.4h4.1C925.2,153.5,925.2,156,925.6,158.6z"/>
			<path class="st15" d="M937.8,207.6c-0.4,3.1-3,5.4-6.1,5.4h-16.3c-3,0-5.6-2.2-5.9-5.2c-0.5-4-0.3-7.8,0.2-11.7
				c0.1-0.5,0.1-1.1,0.2-1.7c0.1-1,0.3-2,0.4-3.1c0.4-2.9,0.7-5.9,0.9-9.3c0-1,0.1-2.1,0.1-3.1c0-0.5,0-1.1,0-1.7
				c0-1.6-0.1-3.3-0.3-5.1c-0.2-2.2,0.3-4.5,1.4-6.4l0.1-0.1c1.6-2.8,4.6-4.5,7.8-4.5h7.4c3.3,0,6.4,1.8,7.9,4.7
				c1,1.9,1.4,4.1,1.2,6.2c-0.2,1.8-0.2,3.6-0.3,5.2c0,0.6,0,1.1,0,1.7c0,1.1,0.1,2.1,0.1,3.1c0.2,3.3,0.5,6.3,0.8,9.3
				c0.1,1,0.2,2.1,0.3,3.1c0.1,0.6,0.1,1.1,0.2,1.7C938.1,199.9,938.2,203.6,937.8,207.6z"/>
			<path class="st1" d="M935.8,207.4c-0.2,2.1-2,3.7-4.2,3.7h-16.3c-2,0-3.7-1.5-4-3.4c-0.5-3.7-0.3-7.2,0.2-11.3
				c0.1-0.5,0.1-1,0.2-1.5l0.1-0.6c0.1-0.9,0.2-1.7,0.3-2.6c0.3-2.7,0.7-5.9,0.9-9.5c0-1,0.1-2.1,0.1-3.2c0-0.6,0-1.1,0-1.7
				c0-0.8-0.1-1.5-0.1-2.3c5.9-1.6,12.3,1.8,21.4,0c0,0.8-0.1,1.5-0.1,2.3c0,0.6,0,1.1,0,1.7c0,1.1,0.1,2.1,0.1,3.2
				c0.2,3.1,0.5,6,0.8,8.8l0.1,1.2c0.1,0.9,0.2,1.7,0.3,2.6c0.1,0.5,0.1,1.1,0.1,1.6C936.1,199.3,936.3,203.2,935.8,207.4z"/>
			<path class="st3" d="M935.4,149.8c-0.3-0.6-0.9-1-1.6-1h-1.7h-13.7v-0.4c0-0.3-0.2-0.5-0.5-0.5h-1.8c-0.3,0-0.5,0.2-0.5,0.5v3.5
				c0,0.3,0.2,0.5,0.5,0.5h1.8c0.3,0,0.5-0.2,0.5-0.5v-0.4h14.1c0.5,0,0.9,0.3,1.1,0.7l0.9,1.8h2.8L935.4,149.8z"/>
			<path class="st13" d="M937.3,191.4h-27.1c0.4-2.9,0.7-5.9,0.9-9.3h25.4C936.6,185.4,937,188.4,937.3,191.4z"/>
			<path class="st13" d="M936.4,177.3c0,0.6,0,1.1,0,1.7h-25.2c0-0.5,0-1.1,0-1.7H936.4z"/>
			<path class="st13" d="M937.8,196.1h-28.2c0.1-0.5,0.1-1.1,0.2-1.7h27.8C937.7,195,937.7,195.6,937.8,196.1z"/>
		</g>
		<g>
			<rect x="898.8" y="293.7" class="st1" width="42.3" height="60.9"/>
			<path class="st16" d="M935.2,293.7v16.9c0,20.1-16.3,36.4-36.4,36.4l0,0v7.6h42.3v-60.9H935.2z"/>
			<rect x="898.7" y="331.7" class="st13" width="42.3" height="2.5"/>
			<rect x="898.7" y="337.2" class="st13" width="42.3" height="2.5"/>
		</g>
	</g>
	<g>
		<path class="st17" d="M644.9,165.7c-2.5,12.6-13.8,17.1-13.8,17.1l-9.6-15.7l-4.5-7.4l1.1-4.3c0,0-17.5-15.5-19.1-18.7
			c-0.6-1.1-1.1-2.3-1.6-3.5c-9.1-20.9-9.9-50.7-3.7-50C611.7,85.2,647.7,151.7,644.9,165.7z"/>
		<path class="st18" d="M633.5,176.8c0,0-8.4-12.3-12-9.8l-4.5-7.4l1.1-4.3c0,0-17.5-15.5-19.1-18.7c-0.6-1.1-1.1-2.3-1.6-3.5
			l5.6-25.8c0,0,13.3,11.1,15.2,36.7C618.7,152.8,638.7,162.7,633.5,176.8z"/>
		<g>
			<g>
				<path class="st19" d="M666.4,395.1c-6.5,39.7-10.7,78.9-21.3,116.9c17.7,9,26.3,18.5,44.1,27.4c-22.8,4.6-42.7-2.3-65.3,3.1
					c-1.6-19.4,1.9-7.3-0.7-31.9c-2.7-24.7-8.5-76.3-5.9-106.6c1.7-20.1,4.2-37.9,10.2-56c-48.7-17-78-48.6-91.1-107.3
					c-0.7-2.9-0.7-6.8-1.1-9.9c19.8-2,39.3-3.8,59.2-6c28.1,49.3,61.9,63,75.6,108.1C675.6,351.1,669.5,376.5,666.4,395.1z"/>
			</g>
			<g>
				<path class="st3" d="M659.3,496.2c-7.3,4.3-27.5,3.8-40.3,1.3c-4.6-0.9-8.2-2.1-9.9-3.5c1.6-19.2,3.2-98.6,8-131
					c-12.7-11.7-21.1-20.7-29.8-30.3c-5.7-6.3-11.4-12.9-18.6-20.7c-16.8-18.5-27.6-43.8-32.3-71.3c-0.5-2.8-0.8-7-1.1-9.9
					c19.8-2,39.3-3.7,59.2-6.1c28.9,32.6,68.1,72.1,82.4,119.4C682.6,363.3,662.9,475.5,659.3,496.2z"/>
			</g>
			<path class="st20" d="M619,497.4c-4.6-0.9-8.2-2.1-9.9-3.5c1.6-19.2,3.2-98.6,8-131c-12.7-11.7-21.1-20.7-29.8-30.3
				c0-22.5,0.1-44.6,0.1-44.6s5.1,33.2,23,51.6c10.1,10.4,31.1,14,31.1,14C623.3,365.6,616,457.1,619,497.4z"/>
			<g>
				<path class="st19" d="M555.7,390.4c-9.7,15.5-24.4,46.4-33.5,52.6c-25.3,17.1-47,27-72.7,39.7c-3.1-5.5-8.1-13.9-11.2-19.3
					c17.3-23.5,74.2-72.2,82.2-77.6c-4.4-56.5-7.3-107.2,9.8-161.2c8.6,0.6,19,1.5,27.2,2.1c8.1,0.6,13.9,1.1,21.6,1.5
					c1.2,4.3,1.9,4.4,2.3,10C585.1,294.2,583.2,346.2,555.7,390.4z"/>
			</g>
			<g>
				<path class="st3" d="M575.6,413.5c-6.5,6-23.3,19.9-40.9,33.6c-21.6,16.9-44.4,33.6-50.9,35.6c-4.7,0-13-7.3-20.3-16
					c-3.1-3.7-6-7.6-8.3-11.3c-0.4-0.7-0.8-1.3-1.2-2c-2.4-4-4-7.7-4.3-10.3c5.3-4,30.9-27.1,49.6-43.5c9.2-8.1,16.8-14.5,19.5-16.2
					c-2.1-26.8-3.4-51.8-2.4-76.4c0.5-12.4,1.6-24.6,3.5-37c0.1-0.7,0.2-1.4,0.3-2.2c0.1-0.9,0.3-1.7,0.4-2.6c0,0,0,0,0,0
					c0.2-1.1,0.4-2.2,0.6-3.2c0.1-0.7,0.3-1.4,0.4-2.2c2.2-11.5,5.1-23.2,8.8-35.2c5.2,0.4,9.7,0.8,14.9,1.1c5.2,0.4,6.5,0.6,13.2,1
					c6.7,0.4,19.7,0.6,27.4,1.3c0.4,7.7,0.7,16.2,1,25.2c0,0.7,0,1.5,0.1,2.2c0.1,1.9,0.1,3.8,0.1,5.8v0c0,0.3,0,0.7,0,1
					c0,0.4,0,0.8,0,1.2C588.3,325.1,586,403.9,575.6,413.5z"/>
			</g>
			<path class="st20" d="M534.6,447.1c-21.6,16.9-44.4,33.6-50.9,35.6c-4.7,0-13-7.3-20.3-16C483.6,466.7,511.4,457,534.6,447.1z"/>
			<path class="st20" d="M499.2,399.6c9.2-8.1,16.8-14.5,19.5-16.2c-2.1-26.8-3.4-51.8-2.4-76.4c0,0,1.6,51.7,13.9,78.1
				C530.1,385.1,521,392.5,499.2,399.6z"/>
			<g>
				<path class="st21" d="M623.8,513.5c-3.9,12.8-5.4,18.8-2.3,31.8c4.1-0.2,71.8,0,71.8,0c2.9-29.7-31.7-21.1-48.1-33.2
					C638.6,510,632.2,521.3,623.8,513.5z"/>
			</g>
			<g>
				<path class="st21" d="M441.2,460.5c-8.8,2.6-23.1,13.6-27.9,22.4c14.3,19,33.2,45.4,47.4,64.4c24.2-20.7,5.4-48.1-4.5-68.1
					C452.1,476.7,441.7,466.4,441.2,460.5z"/>
			</g>
			<g>
				<path class="st17" d="M618,244.7c-21.7,22.3-69.4,12.6-95.6,11.5c-1.6-12.1-5.1-38.9-8.4-64.7c-2.6-20.4-5.1-40.2-6.3-51.8
					c-2.9-18.4,4.4-35.6,16.9-46.9c0.5-0.5,1.1-1,1.7-1.4c0.1-0.1,0.3-0.2,0.4-0.3c0.2-0.2,0.5-0.4,0.8-0.6
					c8.3-6.5,18.4-10.5,29.3-10.9c4.9-0.4,16.1-0.7,16.1-0.7s5.1,0.4,11.2,1.7c3.2,0.6,6.6,1.5,9.5,2.6c3,1.1,5.6,2.5,7.2,4.1
					c10.9,21.7,15.3,65.3,13.5,82.5c-0.1,0.6-0.1,1.2-0.2,1.9C612.3,193.2,608.8,232,618,244.7z"/>
			</g>
			<path class="st18" d="M573.5,161.1c0,0-17.1,43.1-18.4,45c-1.2,1.9-22,12.1-22.8,12.1c-0.4,0-8.4-2.2-15.9-7.9
				c-0.8-6-1.6-12.2-2.4-18.4c-2.4-19.2-4.8-38.7-6.3-52.1c1.5-7.9,2.8-13.2,2.8-13.2L573.5,161.1z"/>
			<path class="st3" d="M624.9,259l-5.8,0.5l-26.6,2.4l-5.4,0.5l-0.4,0l-4,0.4l-1.2,0.1l-37.6,3.4l-1,0.1l-22.3-0.2c0-0.3,0-0.7,0-1
				c0,0,0,0,0,0c0-1.1,0.1-2.2,0.1-3.3c0-0.7,0-1.4,0-2.2c-0.2-20.7-4.4-44.4-6.5-67.9l0-0.3l-0.4-4.7c0,0,6.8-0.5,15.6-2.3l0,0
				c8.8-1.8,19.5-5,27.4-10.5c15.7-10.9,12.6-29.2,2.9-51.4c-9.4-21.7-31.7-28.8-35-29.8c0,0,0,0,0,0c0.5-0.5,1.1-1,1.7-1.4
				c0.1-0.1,0.3-0.2,0.4-0.3c0.2-0.2,0.5-0.4,0.8-0.6c1.7-1.3,3.5-2.5,5.3-3.6c17.5,3.8,29.8,19.3,36,29.1c3.1,4.9,9,7.2,14.6,5.9
				c6.3-1.5,10.4-7.1,10.4-13.2c0-1.6-0.3-3.3-0.9-4.9c-3.8-10.1-5.7-17.6-8.9-23.2c3.2,0.6,6.6,1.5,9.5,2.6c2.8,3,9,20.4,11.9,35.5
				c3.7,19.7,7.3,31.8,8.6,53c0.3,4.4,0.5,9.3,0.6,14.7c0.1,9.1-1.7,23.1-0.6,37.6c0.4,5.6,1.3,11.3,2.9,16.8
				c0.1,0.4,0.2,0.8,0.4,1.2c0.2,0.7,0.4,1.4,0.7,2.1c0.5,1.6,1.1,3.2,1.8,4.8c0.3,0.7,0.6,1.4,0.9,2
				C621.9,253.7,623.3,256.4,624.9,259z"/>
			<path class="st20" d="M617,240.8c-16.5,1.3-40.2,2.2-54.4-2.2c-28.1-8.6-48.9-51.7-48.9-51.7l15.6-2.3l0,0l23-3.4l61.8,42.9
				C614.5,229.6,615.4,235.3,617,240.8z"/>
			<path class="st22" d="M552.1,79.9c1.8,4,4,6.8,6.3,8.7c0,0,0,0,0,0c7.1,5.7,14.9,2,15-6.9l-1-14l-0.3-3.6l-14.3-4L552.1,79.9z"/>
			<path class="st23" d="M552.1,79.9c1.8,4,4,6.8,6.3,8.7c0,0,0,0,0,0c0.7,0.3-6.5-10.5-1.8-16c2.4-2.7,14.3,3.8,16.1,0l-0.3-4.9
				l-0.3-3.6l-14.3-4L552.1,79.9z"/>
			<g>
				<path class="st22" d="M550.9,50.2c0,0,0.2,1,0.6,2.6l0,0c1.9,6.7,8.8,23.8,28,19c16.4-4.1,20.5-29.4,20.6-44.4
					c-10.5-15.2-51.4-8.9-48.4,8.1c0,0-4.8-4.2-7.5,1.1C539.8,45.4,550.9,50.2,550.9,50.2z"/>
				<path class="st24" d="M600.3,39.5c0,0,2.2-4.4,1.2-13c0.8,1.2,1.5,2,2.2,4.3c2.1-6.9-0.1-15.9-8.1-19.6c1-0.4,3.6,0.1,5.1,0.7
					c-12.4-10.6-32.3-12.5-38.8-6.5c0,0-1.9-2.7,0-5.4c0,0-5.8,4.9-5.2,7c0,0-1.2-2.7-4.9-1.3c1.5,0.5,3.2,1.5,2.8,3.1
					c-4.9,0.4-13.8,10-11.6,22.2c0,0,0.7-1.6,2.1-3.2c0,0-2.8,10.3,6.9,18.5c0,0-2.9-5.6,2.4-14.1c5.3-8.5,13.4,3.9,28.9-4.7
					C597.2,19.8,600.3,39.5,600.3,39.5z"/>
			</g>
			<g>
				<path class="st11" d="M618,244.1c-8.1,3.7-18.1,7.5-30.3,11.3c-0.3,0.1-0.6,0.2-0.8,0.2c-17.2,5.2-37.1,6.6-53.8,6.6
					c-4.2,0-8.2-0.1-12-0.2c-0.2,0-0.3,0-0.5,0c0-0.7,0-1.4,0-2.2c0.3,0,0.6,0,0.9,0c18.4,0.7,44,0.1,65.3-6.4
					c0.1,0,0.2-0.1,0.3-0.1c12.3-3.8,22.2-7.7,30.3-11.3C617.5,242.7,617.8,243.4,618,244.1z"/>
			</g>
			<g>
				<path class="st11" d="M620.7,250.9c-7.5,3.6-16.8,7.3-28.2,11c-1.6,0.5-3.1,1-4.8,1.5c-0.2,0.1-0.4,0.1-0.7,0.2
					c-9.6,2.9-20,4.6-30.3,5.6h0c-0.3,0-0.6,0.1-1,0.1c-7.4,0.7-14.7,0.9-21.5,1c-0.4,0-0.8,0-1.2,0c-0.3,0-0.7,0-1,0
					c-4.4,0-8.5-0.1-12.3-0.3c0.1-0.7,0.2-1.4,0.3-2.2c17,0.7,40.7,0.4,61.4-4.9c1.9-0.5,3.7-1,5.6-1.6v0c0,0,0,0,0.1,0
					c13.5-4.2,24.3-8.5,32.8-12.5C620.1,249.6,620.4,250.3,620.7,250.9z"/>
			</g>
			<g>
				<path class="st11" d="M530.1,306.7c-1.6,21.8-2.1,50.6,2.3,78.7l0.1,0.6l-0.5,0.4c-0.6,0.5-58.3,45.8-76.9,69
					c-0.4-0.7-0.8-1.3-1.2-2c18.4-22.6,70.2-63.5,76.2-68.3c-7.9-52,0.5-106,1.9-114.8c0.1-0.8,0.2-1.2,0.2-1.2l2.1,0.4
					c0,0-0.1,0.3-0.2,0.8c-0.6,3.3-2.6,16.1-4,33.9C530.2,305.1,530.1,305.9,530.1,306.7z"/>
			</g>
			<g>
				<path class="st11" d="M529.4,307l-0.9-2c26.8-12,27.2-35.5,27.2-35.8l2.2,0C557.9,269.5,557.5,294.5,529.4,307z"/>
			</g>
			<g>
				<path class="st11" d="M604.8,144.3l-0.5-1.8l-1.3,1.3c-9.2,8.9-26,6.9-26.2,6.8l-1.2-0.1l-0.1,1.2c-0.1,0.8-1.1,20.4,8,27.2
					c2,1.5,4.4,2.3,7,2.3c1.9,0,4-0.4,6.2-1.2C612.9,174.3,605.2,145.5,604.8,144.3z M596.1,177.9c-4.6,1.6-8.3,1.3-11.2-0.8
					c-7-5.2-7.2-19.9-7.1-24.2c4,0.3,16.7,0.7,25.4-6.3C604.5,152.8,608.2,173.6,596.1,177.9z"/>
			</g>
		</g>
		<g>
			<path class="st25" d="M831.6,520.7L831.6,520.7c-2.4,1.3-5.4,0.5-6.8-1.9L584.6,119.5c-1.5-2.5-0.6-5.7,1.9-7.1l0,0
				c2.4-1.3,5.4-0.5,6.8,1.9l240.2,399.3C835,516.1,834.1,519.3,831.6,520.7z"/>
			<g>
				<path class="st26" d="M911.3,526.7c-3.3-2.4-7-2.7-10.3-2.6c-3.3,0.1-6.6,0.6-10-0.5l-128.1,1.6c-6.3,2.3-16.8,5.4-15.3,11.1
					c0.8,3.4,9.3-5.4,8.2,3.9c-2.1,2.5,1,3.5,3.3,4.1c2.3,0.6,5.3-0.8,7.9-2.3c2.6-1.5,5.2-3.1,7.8-3.3c4.4-0.3,7,3.9,9.4,7.6
					c2.5,3.9,6.1,7.9,10.7,6.3c6.3-2.2,9.7-13.3,15.7-13c2.6,0.2,4.6,2.6,7.1,3.4c4.9,1.5,9.8-3.4,14.8-3c3.5,0.3,6.5,3.1,9.6,5.4
					c3.1,2.4,7.1,4.3,10.3,2.5c3.3-1.9,4.3-7.1,7.7-8.4c5.7-2.2,11.6,8.2,18.2,8.9c4.8,0.6,8.1-4.3,12.8-3.2
					c5.1,1.2,11.9,4,16.4,2.7c4.8-1.4,0.6-6.4,4.2-9.3c1-0.8,2.6-1,3.5-2C917.1,534.5,914.7,529.1,911.3,526.7z"/>
				<polygon class="st27" points="905.6,531 760.9,531 768.6,504.9 897.6,504.9 				"/>
				<polygon class="st28" points="902.5,520.9 763.9,520.9 765.5,515.4 900.8,515.4 				"/>
			</g>
		</g>
		<path class="st22" d="M663.3,215.1c-4.7-13.8-23.2-1.5-23.1-1l-1.4,17.3C655.8,243.7,670.7,237.1,663.3,215.1z"/>
		<path class="st17" d="M640.6,209.9l-1.5,19.9l-0.4,5c-35-1.1-69.4-4.2-80-12.6c-3.3-2.6-6.6-5.9-9.7-9.6l-3.8-6
			c0,0-27.9-46.7-30.2-51.7c-19.5-42.6,17.1-55.8,30-42.3c8.3,8.8,21,35.8,30,56.6c0,0,0,0,0,0c6.3,14.5,10.8,26,10.8,26l24,6.5
			L640.6,209.9z"/>
		<path class="st18" d="M609.9,201.6c-15.4-2.5-19.6,3-30,2.6c5.4-7.6-4.6-33.9-4.9-35c6.3,14.5,10.8,26,10.8,26L609.9,201.6z"/>
		<path class="st22" d="M632.7,170.2c2.8,6.2,2.9,11-2.5,13.5c-5.4,2.5-13.4-1.7-16.2-7.9c-2.8-6.2-0.7-13.2,4.7-15.7
			C624,157.6,629.9,164,632.7,170.2z"/>
		<path class="st18" d="M639.1,229.8l-0.4,5c-35-1.1-69.4-4.2-80-12.6c-3.3-2.6-6.6-5.9-9.7-9.6l-3.8-6c5.8,6.1,11,10.6,17.5,14.2
			C581.4,231,626.3,227.3,639.1,229.8z"/>
	</g>
	<g>
		<path class="st22" d="M223.3,204c0,0-13.6,9.8-15.3,10.1c-1.7,0.3-8.7-5.8-10.2-3c-1.4,2.8,7.1,7.8,2.8,13.2
			c-4.9,6.2-10.9,8.3-9.2,11.6c3.8,7.4,13.3,7.1,25.7-3.1c5.5-4.5,6.2-10.5,16.8-14.2L223.3,204z"/>
		<path class="st17" d="M291.3,175.2l-3.3,2.6L228,226.1c-3.7-1.2-7.1-3.1-10-5.9c-2.9-2.8-5.5-6.3-7.6-10.7l40.7-39.5
			c-0.2-12.5-0.9-23.7-2.3-39.7c-0.5-6.1,2.1-29.7,16.4-38.8l21,67.2l3.2,10.1L291.3,175.2z"/>
		<path class="st18" d="M290.1,163.9c0,0-0.3,1.9-0.7,5.1c-0.4,2.3-0.8,5.4-1.3,8.9L228,226.1c-3.7-1.2-7.1-3.1-10-5.9
			c11-2.6,43.3-24.4,41-42c-3-23.5-3.2-58.3-3.2-58.3l30.4,38.9L290.1,163.9z"/>
		<g>
			<path class="st24" d="M273,61.9c1.5,6.8,7.2,4.3,4.7,9.6c-3.6,7.5,10.1,14.8,22,6.9c3.3-2.2,21.6,13,28,1.1
				c1.2-1.1,2.6-2,4.2-2.6c2.2-0.8,4.6-0.7,6.6-1.9c1.7-1,2.9-2.7,3.5-4.5c0.6-1.9,0.6-4,0.1-5.9c-0.1-1.5-0.5-3.1-1.1-4.7
				c-0.2-0.4-0.9-1.7-1.1-2c-0.1-0.2-0.2-0.5-0.4-0.7c-0.5-0.9-1.2-1.7-2-2.4c-0.1-0.2-0.2-0.3-0.3-0.5c-1-1.7-1.5-3.4-1.2-5.4
				c0.2-1.6,0.9-3,1.5-4.4c0.6-1.4,1.1-2.7,1.4-4.2c0.5-2.8,0.2-5.8-0.8-8.5c-1.8-4.5-5.5-7.9-10.1-9.3c-0.4-0.2-0.8-0.3-1.2-0.4
				c-12.1-16.3-32.9-13.1-43-5c0,0-0.1,0-0.1,0c-2.6,1.4-5,3.6-6.7,6c-1.5,2.2-2.6,4.7-3,7.4c-0.4,3,0.2,5.8,1.3,8.6
				c1.1,2.9,2.5,5.7,2.7,8.8c0.1,0.9,0,1.8-0.2,2.7C275.3,54,272.1,57.8,273,61.9z M335.1,47.3c-0.4,1.5-0.1,2.8,0.2,4.2
				c0.2,0.7,0.4,1.3,0.7,2c-2.1-2.1-3.8-4.5-1.7-9.6c2.9-7,0.5-15.3-3.8-19.4c1.2,0.7,2.3,1.6,3.3,2.6c4,4.2,5.1,10.7,2.9,16.1
				C336.3,44.5,335.5,45.8,335.1,47.3z M330.3,76.6c-0.5,0.3-1,0.6-1.5,1c2.7-4.1,5.3-4,9.2-4.9c2.4-0.5,4-3.3,4.1-6.9
				c0.3,1.8,0.1,3.6-0.8,5.3c-0.9,1.8-2.7,3.1-4.6,3.6c-1.1,0.3-2.3,0.4-3.4,0.7C332.2,75.7,331.2,76.1,330.3,76.6z M279.1,48.5
				c0-6.1-4.8-11.2-4.3-17.4c0.2-2.9,1.3-5.6,3-7.9c0.9-1.3,2-2.5,3.2-3.5c-0.7,0.8-1.3,1.6-1.8,2.4c-6.4,10.9-0.7,18.7,0.7,22.8
				C280.3,45.9,279.9,47.2,279.1,48.5z"/>
		</g>
		<g>
			<g>
				<path class="st24" d="M281.1,556.7c7.2-3.5,7.6-8.7,8.8-14.9c1.2-6.2,6.8-10.2,6.8-10.2s6.3-8.7,6.1-9.6l0,0
					c-0.3-1.6-0.6-2.9-0.7-3.7c-0.8-4.8-9.4-14.9-9.4-14.9c0,0-0.2,0-0.2,0.1c-4.4,4.6-10.9,6.9-17.4,6.8c0,0,0,0,0,0.1
					c0,0,0,0,0,0.1c0.1,0.4,0.3,1.6,0.6,3.3c0.6,4,1.1,10.7-0.2,17.6c-0.3,1.9-1.1,3.9-2.1,6.1c-4.1,9-12.2,19.7-11.2,23.7
					C263.5,566,274,560.2,281.1,556.7z"/>
			</g>
			<path class="st29" d="M270.3,543.8c16.4,8.9,22.4-40.5,22.4-40.5c-1,0.7-7.7-23.8-7.7-23.8s-14.4,4.1-19.2,4.1
				C271.5,499.6,280.7,517.5,270.3,543.8z"/>
		</g>
		<g>
			<g>
				<path class="st24" d="M307.1,562.9c7.8-1.9,9.3-6.9,11.8-12.7c2.5-5.8,8.9-8.5,8.9-8.5s8-7.1,8.1-8.1l0,0c0-1.6,0-2.9,0.1-3.8
					c0.3-4.9-6-16.5-6-16.5c0,0-0.2,0-0.2,0c-5.3,3.6-12.1,4.3-18.4,2.8c0,0,0,0,0,0.1c0,0,0,0,0,0.1c0,0.5,0,1.7-0.1,3.4
					c-0.3,4-1.2,10.7-4,17.1c-0.7,1.7-1.9,3.6-3.3,5.5c-5.9,7.9-16.1,16.6-16.1,20.7C287.9,568.2,299.3,564.8,307.1,562.9z"/>
			</g>
			<path class="st29" d="M299.2,548c14,12.3,30.6-34.6,30.6-34.6c-1.1,0.5-2.4-24.9-2.4-24.9s-15,0.9-19.6-0.2
				C310,505.2,315.1,524.6,299.2,548z"/>
		</g>
		<path class="st17" d="M231.8,368.9c1.3,9.1,4.4,22.5,8.3,37.5c11,42,28.2,95.6,28.2,95.6c8.8,0.1,16.6-3,23.8-7.9l-8.8-68.2
			l-7.3-57.1l41.2-142.4l8.8-30.4l-58.1-0.4c-0.1,0.3-0.4,1.5-0.9,3.5c-1.1,4-3.1,11.1-5.6,20.2C250,260.9,228.3,344.2,231.8,368.9z
			"/>
		<path class="st18" d="M283.3,426l-7.3-57.1l41.2-142.4c-1-9.5-1.7-16.1-1.7-17.3c-0.1-2.6-26.5-6.9-48.5-10
			c-1.1,4-3.1,11.1-5.6,20.2c1.6,5.6,13.5,10.3,13.9,21.9c1.3,34,14.6,85.9-14.9,124.1C260.4,365.5,273.7,394.8,283.3,426z"/>
		<path class="st17" d="M292.9,378.8c8.8,50.4,10.7,126,10.7,126c5.2,1,10.3,1.5,15.1,1.3c4.3-0.1,8.4-0.8,12.3-2
			c0.9-62,10.9-193.5,6.4-264.5c-0.1-1.4-0.2-2.7-0.3-4c-0.9-11.2-2.3-21.7-4.6-31.5c-0.8-3.5-1.7-7-2.8-10.4l-2.9,0l-1.6,0
			l-35.2,1.4C289.9,195,284,328.4,292.9,378.8z"/>
		<path class="st18" d="M318.7,506.1c4.3-0.1,8.4-0.8,12.3-2c0.9-62,10.9-193.5,6.4-264.5c-0.1-1.4-0.2-2.7-0.3-4
			c-0.9-11.2-2.3-21.7-4.6-31.5c-0.8-3.5-1.7-7-2.8-10.4l-2.9,0l-1.6,0l-23.8,31.5c0,0,10.2,9.3,18.6,16.5
			C340.8,259.5,326.4,468.4,318.7,506.1z"/>
		<path class="st30" d="M315.4,209.2c1.5,19.2,13.3,27.1,22,30.4c-0.1-1.4-0.2-2.7-0.3-4c-0.9-11.2-2.3-21.7-4.6-31.5
			c-0.8-3.5-1.7-7-2.8-10.4l-2.9,0c-1.4,0.5-2.4,0.9-2.6,1.1C322.8,196,315.4,209.2,315.4,209.2z"/>
		<path class="st31" d="M320.8,216.1c0,0-0.6,11.3,16.3,19.4c-0.9-11.2-2.3-21.7-4.6-31.6c-6.6,0.9-12.6,1.9-12.6,2.1
			c0,0.5-16.1,10.5-16.1,10.5L320.8,216.1z"/>
		<path class="st17" d="M289.9,195l3.3,30c15.5,2.3,38-10.7,36.2-18.6c-12.3-56.5,21.4-101.8,21.4-101.8c-6.4-8.9-23.5-14-38.9-18.3
			l-20.5-2.1c-2.6,0.2-6.7,0.6-11,2c-10.4,3.4-22.7,33.8-18,71.1c1.3,10.4,8.2,64,23,67.9L289.9,195z"/>
		<path class="st18" d="M278.5,87.2c0,0-13.7,28.9,1.6,38.5c14.4,9.1,35.3-1.4,35.3-1.4s-14.7,37.9-40.6,19.9
			C248.9,126.1,278.5,87.2,278.5,87.2z"/>
		<path class="st22" d="M312.3,85.1c-2.3,4.5-4.7,7.6-7.2,9.5c0,0,0,0,0,0c-2.1,1.6-4.5-1.4-6.3-1.4c-4.8,0-7.8-1.3-7.1-9l2.8-16.6
			l0.7-4.3l14.1-2.8L312.3,85.1z"/>
		<path class="st32" d="M312.3,85.1c-2.3,4.5-4.7,7.6-7.2,9.5c0,0,0,0,0,0c-0.7,0.2,6.8-19.4,0.5-19.1c-10.8,0.4-11.5-5.3-11.5-5.3
			l1.1-6.8l14.1-2.8L312.3,85.1z"/>
		<path class="st22" d="M283.1,24.9c-3.7,5.2-9.1,41.8,11.3,47.6c18,5.2,29-19.2,29-19.2s6.4-2.9,6.4-7.9c0-6.3-5.4-3.3-5.4-3.3
			l-3.2-18.4C308.7,11.9,291.2,13.7,283.1,24.9z"/>
		<path class="st24" d="M280.2,46.8c0.6-7.8,2.2-18.4,11.6-22.5c25.4,0.3,10.6,25.5,30.3,34.7c0,0,5.4-9.7,4-24.2
			c-1.1-11.1-10-23.2-23.9-22.6C280,13.1,275.5,35.5,280.2,46.8z"/>
		<path class="st13" d="M291.9,83.6c0,0-8.4-0.6-7.6,4.2c0.8,4.9,4.4,10.2,8,9.5c3.6-0.8,7.3-3.2,7.3-3.2s4.2,4.6,8.4,5.1
			c4.8,0.6,11.8-7.6,10.7-10.4c-1.5-3.6-6.6-3.4-6.6-3.4s-5.9,6.4-12.7,5.8S291.9,83.6,291.9,83.6z"/>
		<path class="st24" d="M292.4,24.1c2.6,0.2,5.4,0.8,7.6,2.3c2.3,1.5,3.8,3.7,4.7,6.2c2.1,5.4,1.9,11.7,5.5,16.4
			c0.9,1.1,2,2.1,3.2,3c1.3,0.9,2.8,1.3,4.2,1.8c0.3,0.1,0.1,0.4-0.1,0.4c-1.3-0.1-2.5-0.5-3.6-1.1c-1.1-0.6-2.2-1.2-3.2-2.1
			c-2.1-1.9-3.4-4.4-4.1-7.1c-1.5-5.3-1.1-11.8-5.5-15.8c-2.4-2.2-5.6-3-8.7-3.6C292.1,24.4,292.2,24,292.4,24.1z"/>
		<path class="st18" d="M240.1,406.4c11,42,28.2,95.6,28.2,95.6c8.8,0.1,16.6-3,23.8-7.9C271.8,486.9,240.1,406.4,240.1,406.4z"/>
		<path class="st33" d="M292.1,15.5c-2.9,1-5.4,2.8-7.6,4.9c-2.4,2.3-4,5.3-4.7,8.4c-0.2,0.9-0.4,1.9-0.3,2.9c0,1,0.2,2,0.3,3
			c0,0.1,0.2,0.1,0.2,0c-0.1-1.6,0.3-3.3,0.6-4.9c0.3-1.6,0.8-3.2,1.4-4.7c1.3-2.8,3.2-5.3,5.7-7c1.4-1,3-1.7,4.5-2.3
			C292.4,15.7,292.3,15.4,292.1,15.5z"/>
		<path class="st33" d="M310.6,29.9c-0.4-1.4-1.2-2.8-2.1-4c-1.9-2.4-4.7-4-7.7-4.4c-1.7-0.2-3.4-0.1-5.1,0.3c-0.1,0-0.1,0.2,0,0.2
			c5.7-1.3,11.8,2.1,14,7.4c0.3,0.7,0.6,1.5,0.8,2.2c0.2,0.8,0.3,1.6,0.4,2.4c0,0.1,0.2,0.2,0.2,0C311.2,32.8,311,31.3,310.6,29.9z"
			/>
		<path class="st33" d="M321,47c-1-0.9-1.9-1.9-2.5-3.1c-0.6-1.2-1-2.6-1.3-4c-0.6-3.1-0.2-6.3-0.3-9.5c-0.1-3.1-0.6-6.1-2.1-8.9
			c-1.4-2.4-3.4-4.4-5.9-5.8c-3-1.6-6.4-2.1-9.7-1.6c-0.1,0-0.1,0.2,0,0.2c6-0.8,12,2.3,14.9,7.6c1.6,2.8,2,5.8,2,9
			c0,3.1-0.1,6.1,0.5,9.1c0.6,2.6,1.8,5.7,4.2,7.1C321,47.3,321.1,47.1,321,47z"/>
		<path class="st33" d="M332.1,31.8c-0.2-1.3-0.7-2.6-1.2-3.8c-0.6-1.2-1.4-2.3-2.3-3.3c-0.1-0.1-0.2,0-0.1,0.1
			c0.8,1,1.3,2.2,1.8,3.4c0.5,1.2,0.8,2.4,1.1,3.7c0.2,1.2,0.3,2.5,0.3,3.8c0,1.3-0.2,2.6-0.5,3.9c0,0.2,0.2,0.3,0.3,0.1
			c0.5-1.2,0.7-2.5,0.9-3.8C332.4,34.5,332.4,33.2,332.1,31.8z"/>
		<path class="st33" d="M332.5,54.1c0-0.1-0.2-0.1-0.2,0.1c0.7,2.1,1.3,4.3,1.3,6.5c0,2-0.6,3.9-1.9,5.5c-2.4,2.8-5.8,4.5-8.1,7.4
			c-1.1,1.4-2.1,3.5-1.7,5.4c0.1,0.3,0.4,0.2,0.4-0.1c0.1-0.9,0.3-1.8,0.7-2.7c0.4-0.8,1-1.6,1.6-2.3c1.2-1.4,2.7-2.6,4.1-3.7
			c1.4-1.1,2.8-2.3,3.8-3.8c1.1-1.5,1.7-3.3,1.7-5.2C334.2,58.6,333.3,56.3,332.5,54.1z"/>
		<path class="st33" d="M284.9,77.1c-3.4-1.1-1.7-5.4-2.1-8c-0.5-3-2.9-5-4.5-7.5c-0.9-1.5-1.6-3.4-0.9-5.2c0.1-0.2-0.2-0.2-0.3-0.1
			c-1.3,3.2,1,6.2,2.8,8.6c1,1.3,1.9,2.7,2.2,4.4c0.2,1.8-0.4,3.5,0.1,5.3c0.3,1.2,1.3,2.8,2.7,2.7C285,77.4,285,77.2,284.9,77.1z"
			/>
		<path class="st33" d="M325.8,61.2c0-0.1-0.2-0.1-0.2,0c0.1,1.8-1.3,3.2-2.6,4.2c-1.2,0.9-2.5,1.6-3.5,2.7c-1.8,2-2.9,4.6-3.1,7.3
			c0,0.8,0,1.4,0.2,2.2c0.1,0.7,0.3,1.5,0.8,2.1c0.1,0.1,0.3,0.1,0.2-0.1c0-0.7-0.2-1.3-0.3-2c-0.1-0.7-0.1-1.4-0.1-2.1
			c0-1.4,0.3-2.7,0.8-4c0.5-1.3,1.3-2.5,2.2-3.6c1.1-1.1,2.4-1.9,3.6-2.9C325.1,64.2,326,62.9,325.8,61.2z"/>
		<path class="st3" d="M365.6,408.9c-0.3,3.5-1.4,9.6-5.9,8.8c-84.3-14.7-89.7,11.1-113.5,5.4c-5.6-1.4-13.4-4.9-19.1-8.9
			c-9.1-34.3,2.9-80.1,17.4-136.9c8.6-28.4,16-58.2,17.3-86.4c0.7-14.5-0.3-28.6-3.5-41.9c-8.8-35.8,7.1-57.5,7.1-57.5
			c2.1-1.9,14.5-5.3,15.6-5.3c0,0-13,18.3-13.8,34.1c-0.9,15.9,33.1,19.3,42.6,7.3c2.4-3.1,11.2-34.4,20.2-35.9c0,0,7.8,2.3,8.3,3.6
			c-9.3-1.6-19.6,33.4-7.6,49.6c1.8,1.9,0.5,4.8,0.4,6.3c-1.7,54,12.1,109.6,21.5,162.8C357.7,345.4,366.3,377.2,365.6,408.9z"/>
		<path class="st20" d="M365.6,408.9c0,0.4-0.1,0.8-0.1,1.1c0,0.3-0.1,0.6-0.1,0.8c0,0.3-0.1,0.7-0.2,1c-0.1,0.3-0.1,0.5-0.2,0.8
			c-0.1,0.3-0.1,0.6-0.2,0.8c0,0.1,0,0.2-0.1,0.2c-0.1,0.4-0.3,0.9-0.5,1.2c-1,2.2-2.5,3.2-4.6,2.8c-84.3-14.7-89.7,11.1-113.5,5.4
			c-3.6-0.8-7.5-2.4-12.2-4.9c19.9-24.4,93.7-15.3,99-71.6c5.9-62.1-14.1-119-30.9-126.9c-16.9-7.9-39.2-5.8-39.2-5.8
			s57.1-12.6,52.6-38.8c-2.8-16.3,9.8-50.9,9.8-50.9v0c0,0.6,0,1.3,0,1.9c0,1.2,0.1,2.6,0.3,4.1v0c0.1,0.9,0.3,1.8,0.4,2.8
			c0.8,4.6,2.4,9.4,4.6,11.8c0.3,2.6,0.5,4.8,0.4,6.3c-0.6,8.1-0.4,17.5,0.3,27.8c0,0.6,0.1,1.2,0.1,1.8c0.1,1.6,0.2,3.2,0.4,4.9
			c0.1,0.6,0.1,1.2,0.2,1.8c0.1,1.2,0.2,2.5,0.3,3.7c0.1,0.6,0.1,1.1,0.2,1.7c0,0.4,0.1,0.7,0.1,1.1c0.1,0.6,0.1,1.3,0.2,1.9
			c0.1,0.7,0.1,1.3,0.2,2c0.4,3.9,0.9,7.9,1.5,12c0.1,0.7,0.2,1.4,0.3,2c0.3,2.2,0.6,4.4,0.9,6.6c0.2,1.3,0.4,2.5,0.5,3.8
			c0.2,1.5,0.4,2.9,0.7,4.4c0.3,1.9,0.6,3.7,0.9,5.6c1.2,7.4,2.4,14.9,3.7,22.4c0.2,1.2,0.4,2.4,0.6,3.6c0.8,4.3,1.5,8.6,2.3,12.8
			c0.1,0.7,0.3,1.4,0.4,2.1c0.3,1.4,0.5,2.9,0.8,4.3c0.2,1.1,0.4,2.3,0.6,3.4c0.2,1,0.4,2,0.6,3c0.2,1.2,0.4,2.4,0.7,3.5
			c1.1,6,2.3,12,3.4,17.9c0.3,1.7,0.7,3.5,1,5.2c0.2,1.1,0.4,2.2,0.6,3.3c0.6,3.2,1.2,6.3,1.8,9.4c0,0.2,0.1,0.4,0.1,0.7
			c0.2,1.2,0.5,2.4,0.7,3.6c0.3,1.5,0.6,2.9,0.8,4.4c0.1,0.7,0.3,1.3,0.4,2c0.5,2.7,1,5.3,1.5,7.9c0.1,0.7,0.2,1.3,0.4,1.9
			c0.4,2.3,0.8,4.5,1.2,6.7c0.2,0.9,0.3,1.8,0.5,2.8c0.1,0.6,0.2,1.2,0.3,1.8c0.1,0.6,0.2,1.2,0.3,1.8c1,6,2,11.8,2.7,17.1
			c0.1,0.5,0.2,1.1,0.2,1.6c0,0.1,0,0.1,0,0.2c0.2,1.5,0.4,3,0.6,4.4c0.4,3,0.8,5.9,1,8.6c0.1,1.3,0.2,2.5,0.4,3.7
			c0,0.1,0,0.2,0,0.3c0.1,0.7,0.1,1.5,0.2,2.2c0,0.1,0,0.2,0,0.3c0.1,1.2,0.1,2.4,0.2,3.5c0,0.4,0,0.8,0,1.1c0,0.3,0,0.5,0,0.8
			C365.9,404,365.8,406.6,365.6,408.9z"/>
		<g>
			<path class="st11" d="M345.1,396.6c0,0.3-0.1,0.5-0.1,0.6L344,397c0,0,0-0.2,0.1-0.4c0.7-5.6,6.8-64.3-12.7-140.6
				c-13.6-53.3-12.6-89-9.4-109.5c1-6.4,2.3-11.7,3.6-16.1c0.1,0.9,0.3,1.8,0.4,2.8c-5.5,20.5-9.7,59.4,6.5,122.5
				C351.8,331.7,345.9,390.3,345.1,396.6z"/>
		</g>
		<g>
			<path class="st34" d="M100.2,533.7l-5.2-1.2l46-205.5l0.1-0.1c15.5-44.1,33-74.6,53.7-93.4c21.3-19.3,47.1-28.7,72.6-26.4
				c30.5,2.7,60.1,21.8,85.6,55c44.5,58,71.4,63.5,93,68c8.1,1.7,15.8,3.2,23.5,7.2c31,16.1,19.5,96.7,19,98.7l-5.2-1.3
				c0.1-0.5,11-78.5-16.3-92.7c-7-3.6-14-5.1-22.1-6.7c-22.5-4.6-50.5-10.3-96.2-70c-24.6-32-52.9-50.3-81.8-52.9
				c-24.1-2.2-48.4,6.7-68.6,25c-19.9,18.1-37,47.9-52.2,91L100.2,533.7z"/>
		</g>
		<g>
			<path class="st24" d="M490.7,435.4l-9.6,0c0-4.8,0.2-42.5,0.5-47.1c1.1-19.7,2-35.2-15.5-44.3c-6.8-3.5-13.6-4.9-21.5-6.5
				c-22.8-4.7-51.3-10.5-97.6-70.8c-24.2-31.6-52-49.6-80.3-52.1c-23.5-2.1-47.2,6.6-66.9,24.5c-19,17.3-35.4,45.4-50,85.8
				c-0.9,2.5-3.6,3.8-6.1,2.9l0,0c-2.5-0.9-3.8-3.7-2.9-6.2c15.2-42,32.4-71.3,52.6-89.7c21.7-19.7,48.1-29.3,74.3-27
				c31.1,2.8,61.2,22.1,87.1,55.8c44.1,57.5,70.6,62.9,91.8,67.2c8.2,1.7,16,3.3,23.9,7.3c23.1,11.9,21.9,33,20.7,53.4
				C490.9,393.3,490.7,430.9,490.7,435.4z"/>
		</g>
		<g>
			<g>
				<path class="st22" d="M367.7,195.1c-8,12.1-42.2,18.9-60.4,21.9c-5.9,0.9-12.3,7.3-12.3,7.3c-15.9,10.8-25.8-3.2-25-7.7
					c0.8-4.5,6.4-4.2,10.3-6.3c5.8-3.2-4.5-4.5-2.7-7.7c1.8-3.2,16.8,2.7,16.8,2.7l52.4-21.5l-8.5-50c0.2-33.8,6.5-28,15.6-15.2
					C362.9,131.5,377.4,180.3,367.7,195.1z"/>
			</g>
			<path class="st17" d="M371.3,199.3c-6.5,8.6-39.1,17-48.5,18.6c-2.1-5-5.9-17.5-7.4-22.4l18.5-8.7l9.9-4.7
				c0,0-9.3-23.2-13.7-37.9c0,0,0,0,0,0c-0.4-1.3-0.7-2.5-1-3.6c-8.7-32.7,7.4-47.6,21.7-35.9C363.1,114.6,380,187.7,371.3,199.3z"
				/>
			<path class="st18" d="M354.1,181.5c0,0-9.3,6.3-20.2,5.3l9.9-4.7c0,0-9.3-23.2-13.7-37.9C330.7,145.5,346.4,179.7,354.1,181.5z"
				/>
		</g>
		<g>
			<rect x="480.1" y="439.7" class="st35" width="11.6" height="31.7"/>
			<rect x="477" y="435.4" class="st35" width="17.7" height="7.4"/>
			<path class="st35" d="M492.3,466.2V540H379.7c0-8.2,1.3-16.1,3.8-23.4c3.7-11,9.8-20.7,17.8-28.7c13.3-13.4,31.8-21.6,52.1-21.6
				H492.3z"/>
			<path class="st24" d="M471,466.2c-0.1,1.3-0.2,3.1-0.6,5.3c-2.1,13.6-12,42.2-57,45.9h0c-3.6,0.3-7.4,0.4-11.5,0.4
				c-3.4,0-7-0.2-10.8-0.5c-2.4-0.2-5-0.5-7.6-0.8c3.7-11,9.8-20.7,17.8-28.7c13.3-13.4,31.8-21.6,52.1-21.6L471,466.2L471,466.2z"
				/>
			<path class="st36" d="M454.6,466.2l-63.5,51.1c-2.4-0.2-5-0.5-7.6-0.8c3.7-11,9.8-20.7,17.8-28.7c13.3-13.4,31.8-21.6,52.1-21.6
				H454.6z"/>
			<path class="st36" d="M471,466.2c-0.1,1.3-0.2,3.1-0.6,5.3l-57,45.9h0c-3.6,0.3-7.4,0.4-11.5,0.4l64.1-51.6L471,466.2L471,466.2z
				"/>
			<path class="st37" d="M492.3,466.2v12.3c0,33.9-27.5,61.4-61.4,61.4h-51.1c0,9.7,11.2,17.5,21,17.5h91.5h26.6v-64.6
				C518.9,478.1,507,466.2,492.3,466.2z"/>
			<g>
				<circle class="st24" cx="502.3" cy="542.1" r="22.2"/>
				<path class="st13" d="M491.2,542.1c0-6.1,5-11.1,11.1-11.1c6.1,0,11.1,5,11.1,11.1c0,6.1-5,11.1-11.1,11.1
					S491.2,548.2,491.2,542.1z"/>
			</g>
			<g>
				
					<ellipse transform="matrix(0.9425 -0.3343 0.3343 0.9425 -159.9802 167.9603)" class="st24" cx="408" cy="548.7" rx="16.3" ry="16.3"/>
				<path class="st13" d="M399.8,548.8c0-4.5,3.7-8.2,8.2-8.2s8.2,3.7,8.2,8.2s-3.7,8.2-8.2,8.2S399.8,553.3,399.8,548.8z"/>
			</g>
		</g>
		<g>
			<path class="st11" d="M290.2,189.1c-5.9,0-10.7-2.1-14.2-6.3c-8.9-10.7-6.4-30.9-6.3-31.7l0.1-0.8l0.7,0.3
				c17,7.7,26.9,5.7,36.5,0.3l0.7-0.4l0.2,0.8c0.2,0.9,4.2,21-4.1,31.6C300.8,187,296.2,189.1,290.2,189.1z M270.9,152.1
				c-0.4,4-1.5,20.9,6.1,29.9c3.2,3.9,7.7,5.8,13.3,5.8c5.5,0,9.8-1.9,12.8-5.7c6.9-8.9,4.6-25.7,4-29.7
				C297.4,157.6,287.5,159.4,270.9,152.1z"/>
		</g>
		<g>
			<path class="st11" d="M365.8,400.9c-20.7-6.9-44.4-1.6-67.4,3.5c-11.7,2.6-23.8,5.3-35.4,6.4c-2,0.2-4,0.3-5.9,0.3
				c-13.6,0-24.6-4.5-33.1-10.2c0-0.4,0-0.9,0-1.3c9.6,6.6,22.6,11.7,39,10.2c11.5-1.1,23.6-3.8,35.3-6.4c15.4-3.4,31-6.9,46-6.8
				c0.4,0,0.7,0,1.1,0c7.1,0.1,14,1,20.6,3.2C365.8,400.2,365.8,400.6,365.8,400.9z"/>
		</g>
		<path class="st34" d="M105.9,534.6l-19.5-6.5l2.4-7.2c0.3-0.8,1.1-1.2,1.9-1l16.7,5.5c0.8,0.3,1.2,1.1,1,1.9L105.9,534.6z"/>
		<g>
			<polygon class="st38" points="111.7,553.6 44.5,532.2 64.2,521 130.8,539.6 			"/>
			<polygon class="st24" points="44.5,532.2 45.1,540.4 111.7,562.7 130,549.2 130.8,539.6 111.7,553.6 			"/>
		</g>
	</g>
	<g>
		<g>
			<polygon class="st39" points="972.1,538.8 956.6,538.8 983.2,402.5 			"/>
			<path class="st39" d="M1074.8,538.8h-15.6l0.8-14.3l4.2-77l0.6-10.2l1-17.6c0.1,0,0.1,0.1,0.2,0.1L1074.8,538.8z"/>
			<path class="st40" d="M1078.9,424.2l-1.6-15.7l-0.4-3.6c-0.3-2.5-1-4.8-2-6.9c-1.3-2.7-3.2-5-5.5-6.8c-0.2-0.1-0.3-0.2-0.5-0.4
				c-0.1,0-0.1-0.1-0.2-0.1c0,0,0,0,0,0c-0.1-0.1-0.3-0.2-0.4-0.3c-0.1,0-0.1-0.1-0.2-0.1c-0.1-0.1-0.3-0.2-0.4-0.3c0,0,0,0,0,0
				c-0.1,0-0.1-0.1-0.2-0.1c-0.4-0.2-0.7-0.4-1.1-0.6c-0.1-0.1-0.3-0.1-0.4-0.2c0,0,0,0-0.1,0c-0.1,0-0.1-0.1-0.2-0.1
				c-0.5-0.2-1-0.4-1.5-0.6c-2.2-0.9-4.7-1.3-7.2-1.3h-54.3c-1.8,0-3.6,0.2-5.2,0.7c-3.3,0.9-6.3,2.6-8.7,4.9
				c-2.5,2.4-4.4,5.5-5.4,9c-0.3,1.1-0.5,2.3-0.7,3.5l-0.3,3l-13.4,130.8l-1.6,15.8h18.5l1.3-15.8c0.9-10.2,9.4-18,19.6-18h46
				c10.2,0,18.7,7.8,19.6,18l0,0l1.3,15.8h18.5L1078.9,424.2z M999.1,405.1c3-3,7.1-4.8,11.7-4.8h38.4c3,0,5.7,0.8,8.1,2.1
				c1.8,1,3.5,2.4,4.8,4.1c1.1,1.3,1.9,2.9,2.6,4.5c0.7,1.8,1,3.7,1,5.8c0,2.5-0.6,4.9-1.6,7.1c-2.7,5.6-8.3,9.4-14.9,9.4h-38.4
				c-0.9,0-1.8-0.1-2.6-0.2c-2.1-0.3-4.1-1.1-5.8-2.1c-2.4-1.4-4.3-3.4-5.7-5.7c-1.5-2.5-2.3-5.4-2.3-8.5c0-0.6,0-1.3,0.1-1.9v0
				C994.8,411.1,996.5,407.7,999.1,405.1z"/>
			<g>
				<path class="st13" d="M1064.7,501l-31.4-54.4c-1-1.7-3.5-1.7-4.4,0L997.4,501c-1,1.7,0.2,3.9,2.2,3.9h62.9
					C1064.4,504.9,1065.7,502.7,1064.7,501z"/>
				<path class="st40" d="M1059.8,499.2l-27.4-47.5c-0.6-1-2.1-1-2.6,0l-27.4,47.5c-0.6,1,0.1,2.3,1.3,2.3h54.8
					C1059.6,501.5,1060.4,500.2,1059.8,499.2z"/>
				<g>
					<path class="st13" d="M1032.8,464.3h-3.5c-1.1,0-1.9,0.9-1.8,2l1.7,20.5c0.1,1,0.9,1.7,1.8,1.7s1.8-0.7,1.8-1.7l1.7-20.5
						C1034.7,465.3,1033.9,464.3,1032.8,464.3z"/>
					<path class="st13" d="M1028.8,493.5c0-1.2,1-2.2,2.2-2.2c1.2,0,2.2,1,2.2,2.2s-1,2.2-2.2,2.2S1028.8,494.7,1028.8,493.5z"/>
				</g>
			</g>
		</g>
	</g>
</g>
</svg>
